<svg width="64" height="64" viewBox="0 0 64 64" fill="none" xmlns="http://www.w3.org/2000/svg">
<circle cx="32" cy="32" r="32" fill="#F9F4EE"/>
<circle cx="32" cy="32" r="31.5" stroke="#E9E2D8" stroke-opacity="0.5"/>
<g clip-path="url(#clip0_808_726)">
<path d="M21.9329 19.7822C20.7486 19.7822 19.7852 20.7457 19.7852 21.93V30.664H30.667V19.7822H21.9329ZM26.8965 25.939H25.942V26.8936C25.942 27.289 25.6214 27.6095 25.2261 27.6095C24.8307 27.6095 24.5102 27.289 24.5102 26.8936V25.939H23.5556C23.1602 25.939 22.8397 25.6185 22.8397 25.2231C22.8397 24.8278 23.1602 24.5072 23.5556 24.5072H24.5102V23.5527C24.5102 23.1573 24.8307 22.8368 25.2261 22.8368C25.6214 22.8368 25.942 23.1573 25.942 23.5527V24.5072H26.8965C27.2919 24.5072 27.6124 24.8278 27.6124 25.2231C27.6124 25.6185 27.2919 25.939 26.8965 25.939ZM42.5909 30.664H42.9806V21.93C42.9806 20.7457 42.0171 19.7822 40.8329 19.7822H32.0988V30.4058C33.5156 29.3399 35.2761 28.7072 37.1817 28.7072C39.2365 28.7072 41.1225 29.4428 42.5909 30.664ZM35.1533 25.2231C35.1533 24.8278 35.4739 24.5072 35.8692 24.5072H39.2102C39.6055 24.5072 39.9261 24.8278 39.9261 25.2231C39.9261 25.6185 39.6055 25.939 39.2102 25.939H35.8692C35.4739 25.939 35.1533 25.6185 35.1533 25.2231ZM30.4088 32.0959H19.7852V40.83C19.7852 42.0142 20.7486 42.9777 21.9329 42.9777H30.667V42.5879C29.4457 41.1196 28.7102 39.2335 28.7102 37.1788C28.7102 35.2732 29.3428 33.5127 30.4088 32.0959ZM26.9254 38.2238C27.205 38.5033 27.205 38.9566 26.9254 39.2362C26.7857 39.376 26.6025 39.4459 26.4192 39.4459C26.236 39.4459 26.0528 39.376 25.9131 39.2362L25.2261 38.5492L24.5391 39.2362C24.3993 39.376 24.2161 39.4459 24.0329 39.4459C23.8497 39.4459 23.6664 39.376 23.5267 39.2362C23.2471 38.9566 23.2471 38.5033 23.5267 38.2237L24.2136 37.5368L23.5266 36.8498C23.2471 36.5702 23.2471 36.1169 23.5266 35.8373C23.8062 35.5578 24.2595 35.5578 24.5391 35.8373L25.2261 36.5243L25.9131 35.8373C26.1926 35.5578 26.6459 35.5578 26.9255 35.8373C27.2051 36.1169 27.2051 36.5702 26.9255 36.8498L26.2385 37.5368L26.9254 38.2238Z" fill="#B02E0C"/>
<path d="M37.1765 30.1392C33.2947 30.1392 30.1367 33.2972 30.1367 37.1789C30.1367 41.0607 33.2947 44.2187 37.1765 44.2187C41.0582 44.2187 44.2163 41.0607 44.2163 37.1789C44.2163 33.2972 41.0582 30.1392 37.1765 30.1392ZM38.8469 39.088H35.506C35.1107 39.088 34.7901 38.7675 34.7901 38.3721C34.7901 37.9767 35.1107 37.6562 35.506 37.6562H38.8469C39.2423 37.6562 39.5629 37.9767 39.5629 38.3721C39.5629 38.7675 39.2423 39.088 38.8469 39.088ZM38.8469 36.7017H35.506C35.1107 36.7017 34.7901 36.3811 34.7901 35.9858C34.7901 35.5904 35.1107 35.2698 35.506 35.2698H38.8469C39.2423 35.2698 39.5629 35.5904 39.5629 35.9858C39.5629 36.3811 39.2423 36.7017 38.8469 36.7017Z" fill="#B02E0C"/>
</g>
<defs>
<clipPath id="clip0_808_726">
<rect width="24.4364" height="24.4364" fill="white" transform="translate(19.7852 19.7822)"/>
</clipPath>
</defs>
</svg>
