<svg width="23" height="23" viewBox="0 0 23 23" fill="none" xmlns="http://www.w3.org/2000/svg">
<path fill-rule="evenodd" clip-rule="evenodd" d="M11.0249 0C8.10248 0.00299973 5.30057 1.16499 3.23376 3.23109C1.16695 5.29719 0.00400176 8.0987 0 11.0211C0.0049965 13.9435 1.16815 16.7449 3.23463 18.8114C5.30112 20.8778 8.10244 22.041 11.0249 22.046C13.9466 22.041 16.7472 20.8776 18.8125 18.8109C20.8777 16.7442 22.0392 13.9429 22.0422 11.0211C22.0392 8.09905 20.8771 5.29753 18.8109 3.23132C16.7447 1.16511 13.9469 0.0030016 11.0249 0ZM11.0098 5.99811C11.1438 5.99657 11.2769 6.02197 11.401 6.0728C11.5251 6.12363 11.6377 6.19886 11.7321 6.29404C11.8266 6.38921 11.901 6.50238 11.9509 6.62684C12.0008 6.7513 12.0252 6.88451 12.0227 7.01858V10.0195H15.0236C15.2893 10.0195 15.544 10.125 15.7318 10.3129C15.9197 10.5007 16.0252 10.7555 16.0252 11.0211C16.0252 11.2867 15.9197 11.5415 15.7318 11.7293C15.544 11.9172 15.2893 12.0227 15.0236 12.0227H12.0227V15.0236C12.0227 15.2893 11.9172 15.544 11.7293 15.7318C11.5415 15.9197 11.2867 16.0252 11.0211 16.0252C10.7555 16.0252 10.5007 15.9197 10.3129 15.7318C10.1251 15.544 10.0195 15.2893 10.0195 15.0236V12.0265H7.0148C6.75369 12.032 6.50067 11.9357 6.30929 11.758C6.11791 11.5803 6.0032 11.3351 5.98945 11.0743C5.9757 10.8135 6.06398 10.5575 6.2356 10.3607C6.40723 10.1638 6.64873 10.0415 6.90898 10.0195C6.94423 10.0177 6.97955 10.0177 7.0148 10.0195H10.012V7.01858C10.0095 6.88611 10.0333 6.75445 10.082 6.63124C10.1308 6.50803 10.2035 6.39571 10.2959 6.3008C10.3884 6.20588 10.4987 6.13026 10.6206 6.0783C10.7425 6.02634 10.8773 5.99909 11.0098 5.99811Z" fill="#B02E0C"/>
</svg>
