<svg width="64" height="64" viewBox="0 0 64 64" fill="none" xmlns="http://www.w3.org/2000/svg">
<circle cx="32" cy="32" r="32" fill="#F9F4EE"/>
<circle cx="32" cy="32" r="31.5" stroke="#E9E2D8" stroke-opacity="0.5"/>
<g clip-path="url(#clip0_808_760)">
<path d="M24.4794 36.6061C24.4794 36.2352 24.1791 35.9349 23.8082 35.9349H20.4524C20.0816 35.9349 19.7812 36.2352 19.7812 36.6061V42.0201C19.7812 42.391 20.0816 42.6913 20.4524 42.6913H23.8082C24.1791 42.6913 24.4794 42.391 24.4794 42.0201V36.6061ZM29.8935 31.9079H26.5376C26.1668 31.9079 25.8665 32.2083 25.8665 32.5791V42.0201C25.8665 42.391 26.1668 42.6913 26.5376 42.6913H29.8935C30.2643 42.6913 30.5646 42.391 30.5646 42.0201V32.5791C30.5646 32.2083 30.2643 31.9079 29.8935 31.9079ZM35.9339 30.5656H32.5781C32.2073 30.5656 31.907 30.8659 31.907 31.2368V42.0201C31.907 42.391 32.2073 42.6913 32.5781 42.6913H35.9339C36.3048 42.6913 36.6051 42.391 36.6051 42.0201V31.2368C36.6051 30.8659 36.3048 30.5656 35.9339 30.5656ZM42.0192 25.1963H38.6633C38.2925 25.1963 37.9922 25.4966 37.9922 25.8675V42.0201C37.9922 42.391 38.2925 42.6913 38.6633 42.6913H42.0192C42.39 42.6913 42.6903 42.391 42.6903 42.0201V25.8675C42.6903 25.4966 42.39 25.1963 42.0192 25.1963Z" fill="#B02E0C"/>
<path d="M22.1776 34.5478C23.2878 34.5478 24.191 33.6446 24.191 32.5344C24.191 32.3457 24.1567 32.1669 24.108 31.9938L26.723 30.1478C27.0513 30.3809 27.4501 30.5209 27.8825 30.5209C28.9011 30.5209 29.7364 29.7579 29.8688 28.775L32.5465 28.2112C32.9009 28.789 33.5327 29.1785 34.2585 29.1785C35.3687 29.1785 36.272 28.2753 36.272 27.165C36.272 26.8966 36.2169 26.6412 36.1213 26.4069L39.3335 23.5517C39.6215 23.7106 39.9473 23.8092 40.299 23.8092C41.4092 23.8092 42.3125 22.906 42.3125 21.7957C42.3125 20.6855 41.4092 19.7822 40.299 19.7822C39.1888 19.7822 38.2855 20.6855 38.2855 21.7957C38.2855 22.0642 38.3406 22.3195 38.4362 22.5539L35.224 25.4091C34.9359 25.2501 34.6102 25.1515 34.2585 25.1515C33.2399 25.1515 32.4046 25.9145 32.2722 26.8974L29.5945 27.4612C29.24 26.8834 28.6083 26.4939 27.8825 26.4939C26.7722 26.4939 25.869 27.3971 25.869 28.5074C25.869 28.696 25.9033 28.8748 25.952 29.0479L23.337 30.8939C23.0087 30.6608 22.6099 30.5209 22.1776 30.5209C21.0673 30.5209 20.1641 31.4241 20.1641 32.5344C20.1641 33.6446 21.0673 34.5478 22.1776 34.5478Z" fill="#B02E0C"/>
</g>
<defs>
<clipPath id="clip0_808_760">
<rect width="24.4364" height="24.4364" fill="white" transform="translate(19.7812 19.7822)"/>
</clipPath>
</defs>
</svg>
