<svg width="468" height="410" viewBox="0 0 468 410" fill="none" xmlns="http://www.w3.org/2000/svg">
<path d="M460.065 318.61L449.379 287.264L431.536 293.343L395.09 186.403L354.458 200.246L354.58 200.61L341.475 257.181L322.828 337.659L333.706 361.676L372.073 348.602L386.039 343.84L401.588 338.54L414.282 375.796L454.915 361.952L442.22 324.696L460.065 318.61ZM386.183 308.801L376.966 311.942L359.315 317.958L371.363 258.139L372.496 253.176L390.902 307.191L386.183 308.801Z" fill="#EFD9B8"/>
<path opacity="0.25" d="M442.22 324.695L454.916 361.951L429.035 350.881L387.671 201.843L372.496 253.177L365.47 282.253L341.477 257.178L354.582 200.609L354.46 200.245L395.091 186.403L431.536 293.344L449.379 287.264L460.066 318.61L442.22 324.695Z" fill="#C29F6A"/>
<path opacity="0.25" d="M386.041 343.839L372.074 348.601L374.127 319.818V314.571L376.968 311.942L378.796 310.253L386.184 308.801C386.185 308.801 385.727 329.942 386.041 343.839Z" fill="#C29F6A"/>
<path d="M14.0956 261.4C13.052 261.4 12.2792 261.343 11.9457 261.204C11.5563 261.04 10.3686 260.545 0 242.037L1.86408 240.993C5.73633 247.904 11.6086 257.964 12.8521 259.25C13.9806 259.433 20.1817 259.001 25.6764 258.449L25.8913 260.575C22.4317 260.922 17.123 261.4 14.0956 261.4Z" fill="#F26647"/>
<path d="M51.6789 270.376V270.995C51.6789 270.995 51.1129 282.743 42.3178 282.236C42.2957 282.236 42.2748 282.231 42.2527 282.231C36.8139 281.878 30.0816 279.34 25.5679 277.455C22.7311 276.269 20.7647 275.339 20.5462 275.376C19.9745 275.467 27.2076 305.558 27.1112 307.272C27.1007 307.502 27.0473 307.748 26.9671 308C26.4546 309.629 24.6649 311.584 23.5911 311.745C23.4783 311.762 23.2494 311.552 22.924 311.146C19.6537 307.081 6.70863 283.466 6.35533 275.755C5.97648 267.282 10.2601 262.179 16.0685 261.206C20.3533 260.49 32.8824 262.216 39.1591 263.173C41.3881 263.514 42.8245 263.755 42.8245 263.755L51.6789 270.376Z" fill="#0A2533"/>
<path opacity="0.25" d="M27.1134 307.272C27.1029 307.503 27.0495 307.748 26.9693 308C26.4568 309.629 24.6671 311.584 23.5933 311.746C23.4806 311.762 23.2516 311.553 22.9262 311.146C27.5318 304.644 15.4932 272.988 18.1115 272.897C19.4038 272.854 22.2626 275.051 25.5701 277.455C22.7333 276.269 20.767 275.339 20.5485 275.376C19.9755 275.467 27.2099 305.557 27.1134 307.272Z" fill="#010101"/>
<path opacity="0.25" d="M51.6838 270.376V270.995C51.6838 270.995 51.1178 282.743 42.3228 282.236C44.0532 280.853 44.3739 278.416 44.2449 275.467C44.0962 272.053 40.9375 266.208 39.1641 263.174C41.393 263.515 42.8295 263.756 42.8295 263.756L51.6838 270.376Z" fill="#010101"/>
<path d="M32.9627 231.799C32.6698 232.26 32.4769 232.644 32.4769 232.937C32.4769 232.937 32.4664 232.92 32.4455 232.884C32.3433 232.702 31.9749 232.067 31.5007 231.329C30.6988 230.09 29.5925 228.55 28.9242 228.363C27.8504 228.069 24.9927 231.68 21.1298 231.969C20.8729 231.992 20.6173 231.996 20.3546 231.987C16.1023 231.794 11.5921 225.762 15.2145 218.656C16.4812 221.258 19.0832 221.322 19.0832 221.322C19.0832 221.322 17.4957 221.002 17.4376 219.035C22.0688 219.857 24.4802 216.369 28.4815 217.64C32.4769 218.906 32.227 221.32 32.227 221.32C32.227 221.32 35.2719 220.113 36.2225 223.923C36.986 226.97 34.1388 229.973 32.9627 231.799Z" fill="#0A2533"/>
<path d="M32.4447 232.885C32.1727 233.846 31.6533 234.894 30.9536 235.743C30.1053 236.78 28.9827 237.538 27.7159 237.507C25.0128 237.443 22.3247 233.815 21.1289 231.97C24.9919 231.682 27.8496 228.071 28.9234 228.364C29.5916 228.551 30.6968 230.09 31.4999 231.33C31.9728 232.068 32.3424 232.704 32.4447 232.885Z" fill="url(#paint0_linear_726_1410)"/>
<path d="M36.3529 233.252C36.3529 233.252 34.3226 237.89 33.5591 236.875C33.1477 236.325 31.9611 235.962 30.957 235.742C31.6578 234.893 32.1761 233.845 32.4481 232.884C32.4701 232.92 32.4794 232.937 32.4794 232.937C32.4794 232.643 32.6724 232.259 32.9652 231.8C34.44 232.912 36.3529 233.252 36.3529 233.252Z" fill="url(#paint1_linear_726_1410)"/>
<path d="M50.6348 272.422C47.3971 271.947 38.6403 262.425 38.6403 258.328C38.6403 257.75 38.5764 257.109 38.4695 256.41C37.7966 252.146 35.334 245.895 34.3079 241.477C33.1167 236.337 34.8308 234.413 34.8308 234.413C38.817 227.559 47.8375 241.145 52.9823 252.039L52.9881 252.045C54.7185 255.715 55.8633 259.124 55.969 261.406C56.3374 269.119 53.8725 272.898 50.6348 272.422Z" fill="#5462AD"/>
<path opacity="0.25" d="M50.6393 272.422C47.4016 271.947 38.6449 262.425 38.6449 258.328C38.6449 257.75 38.581 257.109 38.474 256.41L38.4531 254.583L41.6258 237.955C41.6258 237.955 46.007 243.165 46.7067 252.494C47.4016 261.822 57.6726 263.852 52.9915 252.045C54.722 255.715 55.8666 259.124 55.9724 261.406C56.342 269.119 53.8771 272.897 50.6393 272.422Z" fill="#010101"/>
<path d="M43.8462 251.857C43.7614 251.93 43.6114 251.989 43.4139 252.044C41.9124 252.459 37.5369 252.396 35.7147 252.038C35.4427 251.985 35.2231 251.921 35.0848 251.857C33.8832 251.285 35.0848 249.886 34.7059 247.412C34.3259 244.933 33.3741 237.699 37.0558 235.475C40.9071 233.151 43.7172 241.95 43.8462 246.332C43.9752 250.715 44.6748 251.157 43.8462 251.857Z" fill="#5462AD"/>
<path d="M43.4122 252.044C43.4122 252.044 43.2367 262.745 41.1949 267.795C41.1949 267.8 41.1949 267.8 41.1949 267.805C40.5592 269.376 39.7422 270.397 38.6893 270.376C34.2604 270.279 24.3124 259.76 23.4048 259.375C22.5018 258.995 17.9764 259.663 18.1206 258.995C18.2647 258.328 20.0276 256.852 21.9289 256.142C23.8371 255.427 23.5001 255.854 35.7351 261.475C35.5689 260.395 35.6387 255.726 35.6921 253.081C35.6979 252.68 35.7096 252.328 35.7142 252.039C37.5364 252.396 41.9107 252.46 43.4122 252.044Z" fill="url(#paint2_linear_726_1410)"/>
<path d="M30.7628 314.507C31.0731 316.414 18.2605 329.455 18.9275 326.031C19.5899 322.601 23.5924 311.744 23.5924 311.744C24.6662 311.583 26.4559 309.629 26.9684 307.999C28.0166 309.815 30.5013 312.925 30.7628 314.507Z" fill="#5462AD"/>
<path opacity="0.25" d="M42.3229 274.454C42.3229 274.454 21.7564 270.592 17.6936 272.459C13.6307 274.326 25.1267 306.827 25.1267 306.827" stroke="white" stroke-width="0.534236" stroke-miterlimit="10"/>
<path opacity="0.25" d="M41.1914 267.795C41.5819 265.646 41.8759 259.4 40.7963 256.932C40.0699 255.264 37.3668 253.833 35.6875 253.081C35.6933 252.68 35.7049 252.328 35.7096 252.039C37.5318 252.397 41.9073 252.46 43.4088 252.045C43.4088 252.044 43.2333 262.745 41.1914 267.795Z" fill="#010101"/>
<path d="M373.576 195.415C373.16 197.018 372.465 199.081 371.385 201.842C369.847 205.801 367.522 211.197 364.098 218.72C364.013 222.541 362.795 246.908 362.464 252.518C362.421 253.203 362.394 253.608 362.383 253.662C362.336 253.907 361.454 254.378 360.493 254.618C359.584 254.853 358.612 254.884 358.194 254.329C357.334 253.186 351.527 230.141 351.244 224.715C350.956 219.287 350.672 220.526 357.334 198.914C355.715 199.673 345.222 199.39 345.222 199.39C345.222 199.39 347.145 225.857 347.156 226.049C347.156 226.076 347.14 226.14 347.102 226.23C346.98 226.594 346.595 227.402 346.178 227.807C345.991 227.993 345.798 228.1 345.622 228.047C345.521 228.021 345.274 227.796 344.918 227.417C342.904 225.279 337.379 218.089 334.386 211.383C330.865 203.48 330.004 197.956 333.339 192.437C336.673 186.913 353.556 186.49 353.556 186.49C354.625 186.789 357.082 187.083 359.513 187.66C360.229 187.826 360.945 188.024 361.619 188.248C365.317 189.477 372.363 191.036 373.88 190.161C374.217 191.339 374.292 192.718 373.576 195.415Z" fill="#6561AB"/>
<path d="M387.57 177.015C386.902 177.394 379.145 177.106 373.902 175.107C373.929 176.031 374.046 177.485 374.18 179.136C374.389 181.738 374.63 184.832 374.571 187.086C374.538 188.695 374.352 189.88 373.902 190.153C373.897 190.159 373.892 190.164 373.88 190.164C373.075 190.628 370.712 190.404 368.116 189.913C366.438 189.592 364.665 189.159 363.153 188.726C362.602 188.566 362.085 188.406 361.62 188.251C358.649 187.257 354.942 186.877 353.557 186.492C353.209 186.396 353.012 186.305 353 186.198C352.958 185.674 354.288 184.489 354.913 183.249C354.987 183.094 355.088 182.864 355.201 182.57C355.709 181.272 356.505 178.814 356.89 177.249C357.119 176.325 357.205 175.716 357.003 175.822C356.383 176.153 352.717 183.008 352.289 183.008C352.14 183.008 351.402 182.586 350.526 181.993C349.051 180.993 347.198 179.524 347.155 178.825C347.144 178.728 347.171 178.648 347.241 178.584C348.101 177.772 354.667 166.728 357.049 164.372C358.166 163.26 359.486 162.593 360.56 162.198C361.761 161.749 362.67 161.647 362.67 161.647C364.086 161.598 365.512 161.786 366.902 162.138C371.625 163.319 375.958 166.301 378.427 167.775C381.616 169.677 383.806 169.154 384.613 169.63C385.427 170.112 388.232 176.63 387.57 177.015Z" fill="#F26647"/>
<path d="M374.567 187.086C370.176 187.14 360.414 186.749 355.199 182.571C355.707 181.273 356.503 178.815 356.888 177.25C356.888 177.25 367.194 180.375 374.177 179.136C374.386 181.738 374.627 184.832 374.567 187.086Z" fill="#F69181"/>
<path opacity="0.25" d="M366.9 162.141C366.731 163.968 366.083 165.934 364.095 165.779C361.291 165.561 360.686 163.268 360.559 162.2C361.76 161.751 362.669 161.649 362.669 161.649C364.085 161.6 365.51 161.787 366.9 162.141Z" fill="#010101"/>
<path d="M365.717 158.159C365.717 158.159 365.241 156.209 364.285 155.205C363.511 156.466 360.524 157.112 358.221 157.278C357.131 157.358 356.191 157.332 355.715 157.209C354.097 150.92 359.145 148.162 361.956 147.971C364.76 147.778 367.288 149.867 366.524 153.057C369.045 155.542 365.717 158.159 365.717 158.159Z" fill="#321212"/>
<path d="M365.717 158.159C365.573 158.576 365.349 159.309 364.964 159.992H364.958C364.329 161.13 363.271 162.14 361.438 161.397C361.374 161.37 361.31 161.344 361.251 161.312C359.708 160.611 358.906 159.249 358.5 158.176C358.373 157.838 358.282 157.529 358.223 157.278C360.525 157.112 363.513 156.466 364.287 155.205C364.33 155.254 364.373 155.302 364.415 155.349C365.285 156.386 365.717 158.159 365.717 158.159Z" fill="url(#paint3_linear_726_1410)"/>
<path d="M365.477 163.016C365.194 164.779 362.288 164.684 361.972 163.54C361.806 162.947 361.618 162.375 361.474 161.958C361.346 161.569 361.25 161.317 361.25 161.317V161.312C361.309 161.344 361.373 161.37 361.437 161.397C363.27 162.14 364.327 161.131 364.957 159.992H364.963C364.765 160.387 365.294 160.884 365.471 161.819C365.536 162.156 365.552 162.552 365.477 163.016Z" fill="url(#paint4_linear_726_1410)"/>
<path d="M350.386 232.81C350.103 235.001 338.77 243.571 338.963 242.048C339.149 240.525 344.921 227.419 344.921 227.419C345.278 227.798 345.525 228.024 345.625 228.049C346.197 228.215 346.923 226.762 347.104 226.233C348.628 228.146 350.642 230.855 350.386 232.81Z" fill="#262166"/>
<path d="M358.193 272.171C355.527 266.453 358.193 254.33 358.193 254.33C359.048 255.473 362.286 254.138 362.381 253.663C362.393 253.609 362.418 253.203 362.461 252.519C362.461 252.519 362.889 258.328 363.397 263.248C363.905 268.169 360.86 277.882 358.193 272.171Z" fill="#262166"/>
<path opacity="0.25" d="M357.332 198.916C355.714 199.674 345.221 199.391 345.221 199.391C345.221 199.391 347.144 225.859 347.154 226.05C347.154 226.077 347.138 226.141 347.101 226.232C346.979 226.595 346.593 227.403 346.177 227.809C344.243 218.752 340.386 201.387 343.462 198.407C347.401 194.597 358.065 193.582 358.219 194.416C358.375 195.255 357.332 198.916 357.332 198.916Z" fill="#010101"/>
<path d="M349.783 186.407C349.629 186.728 349.549 186.995 349.597 187.172C349.826 188.059 348.608 199.167 349.052 200.31C349.495 201.454 349.752 205.07 349.495 207.357C349.238 209.644 344.479 211.039 344.479 209.073C344.479 207.102 345.051 202.469 345.243 200.69C345.435 198.917 343.657 186.061 344.132 184.282C344.442 183.122 345.633 181.157 346.424 179.933C346.845 179.277 347.156 178.827 347.156 178.827C347.227 179.942 351.901 183.01 352.29 183.01C352.289 183.009 350.409 185.115 349.783 186.407Z" fill="url(#paint5_linear_726_1410)"/>
<path opacity="0.25" d="M373.579 195.415C371.479 195.261 369.117 194.341 367.472 192.69C365.559 190.777 362.369 189.004 359.516 187.663C360.232 187.829 360.947 188.026 361.621 188.251C365.319 189.479 372.365 191.039 373.883 190.164C374.22 191.34 374.295 192.718 373.579 195.415Z" fill="#010101"/>
<path opacity="0.25" d="M371.381 201.843C369.842 205.802 367.518 211.198 364.093 218.721C364.008 222.542 362.79 246.91 362.459 252.519C362.416 253.204 362.39 253.609 362.379 253.663C362.331 253.908 361.449 254.379 360.488 254.619C360.707 246.402 360.419 228.514 361.808 223.193C363.468 216.824 370.916 202.719 371.381 201.843Z" fill="#010101"/>
<path opacity="0.25" d="M363.154 188.726C362.603 188.565 362.086 188.406 361.621 188.25C358.651 187.257 354.943 186.877 353.558 186.492C353.211 186.396 353.013 186.305 353.002 186.198C352.96 185.674 354.289 184.489 354.914 183.249C355.534 182.009 357.623 175.486 357.004 175.821C356.385 176.153 352.718 183.008 352.29 183.008C352.142 183.008 351.404 182.586 350.527 181.992C350.618 181.838 350.719 181.682 350.832 181.517C353.114 178.151 356.86 173.963 357.494 170.345C358.002 167.679 358.766 169.202 358.637 172.632C358.523 175.711 358.357 185.136 363.154 188.726Z" fill="#010101"/>
<path opacity="0.25" d="M373.9 190.153C373.894 190.159 373.889 190.163 373.877 190.163C373.072 190.628 370.71 190.404 368.113 189.912C372.756 185.259 370.223 172.655 370.95 173.302C371.804 174.061 373.898 175.108 373.898 175.108C373.996 178.537 375.38 189.25 373.9 190.153Z" fill="#010101"/>
<path opacity="0.25" d="M352.288 183.009C352.288 183.009 350.408 185.115 349.783 186.407C349.767 186.124 349.747 185.862 349.719 185.628C349.575 184.266 347.454 181.305 346.422 179.932C346.844 179.275 347.154 178.826 347.154 178.826C347.225 179.943 351.899 183.009 352.288 183.009Z" fill="#010101"/>
<path opacity="0.25" d="M364.415 155.349C363.272 157.877 359.911 158.17 358.5 158.176C358.373 157.838 358.282 157.529 358.223 157.278C360.525 157.112 363.513 156.466 364.287 155.205C364.33 155.254 364.373 155.302 364.415 155.349Z" fill="#010101"/>
<path opacity="0.25" d="M365.47 161.82C365.256 161.986 364.996 162.109 364.669 162.184C363.136 162.531 362.057 162.232 361.474 161.959C361.346 161.57 361.25 161.318 361.25 161.318V161.313C361.309 161.345 361.373 161.371 361.437 161.398C363.27 162.141 364.327 161.132 364.957 159.993H364.963C364.765 160.388 365.294 160.884 365.47 161.82Z" fill="#010101"/>
<path d="M380.664 -35.3036V201.843" stroke="url(#paint6_linear_726_1410)" stroke-width="1.06859" stroke-miterlimit="10"/>
<path d="M390.66 173.617C390.65 173.681 390.634 173.745 390.623 173.804C389.993 176.673 387.695 176.978 387.262 176.791C386.83 176.604 385.686 175.289 384.687 170.658C384.664 170.566 384.649 170.476 384.627 170.38C384.627 170.38 382.469 164.845 381.455 162.184C378.949 160.698 378.474 161.303 378.12 159.587C377.773 157.872 378.885 155.655 379.521 155.334C380.157 155.019 383.01 157.685 383.394 158.668C383.773 159.65 391.232 170.571 390.66 173.617Z" fill="url(#paint7_linear_726_1410)"/>
<path opacity="0.25" d="M390.624 173.804C389.994 176.673 387.696 176.978 387.263 176.791C386.83 176.603 385.687 175.289 384.688 170.658C385.323 171.944 386.302 173.612 387.376 174.301C388.555 175.053 389.881 174.814 390.624 173.804Z" fill="#010101"/>
<path d="M306.5 323.798L300.377 292.527C295.847 269.398 287.111 252.526 274.17 241.903C261.224 231.287 245.234 227.841 226.197 231.571C207.16 235.3 193.66 244.478 185.704 259.101C177.743 273.73 176.033 292.648 180.58 315.858L186.724 347.248C191.239 370.297 199.964 387.131 212.909 397.747C218.375 402.23 224.391 405.435 230.957 407.355C239.938 409.989 249.951 410.218 260.994 408.059C266.716 406.942 271.943 405.323 276.66 403.207C287.579 398.313 295.818 390.764 301.375 380.549C309.337 365.921 311.042 347.001 306.5 323.798ZM268.277 365.771C266.183 372.184 261.754 376.051 254.989 377.376C247.985 378.749 242.294 376.782 237.904 371.473C234.911 367.855 232.352 362.486 230.23 355.364C230.23 355.358 230.23 355.353 230.23 355.353C230.225 355.342 230.225 355.33 230.219 355.315C229.236 352.014 228.35 348.332 227.558 344.277L218.963 300.376C216.949 288.846 216.943 279.945 218.941 273.671C220.94 267.401 225.363 263.59 232.207 262.255C237.427 261.228 241.93 262.11 245.713 264.889H245.719C247.007 265.84 248.213 267.004 249.336 268.394C253.754 273.86 257.173 282.772 259.588 295.119L267.907 337.6C270.249 349.967 270.373 359.354 268.277 365.771Z" fill="#B02E0C"/>
<path opacity="0.25" d="M271.349 371.638C273.113 374.352 275.458 392.806 276.66 403.208C271.942 405.325 266.716 406.944 260.995 408.06C249.952 410.218 239.939 409.99 230.958 407.356C231.325 406.528 231.662 405.662 231.95 404.775C237.555 387.651 230.551 356.754 230.23 355.364C232.351 362.486 234.91 367.855 237.904 371.473C242.295 376.783 247.986 378.749 254.99 377.376C261.754 376.05 266.184 372.183 268.278 365.771C270.373 359.355 270.249 349.967 267.909 337.599L259.591 295.118C257.176 282.771 253.756 273.859 249.338 268.393C248.216 267.004 247.009 265.84 245.722 264.888C259.234 267.538 270.208 309.373 274.781 329.553C279.348 349.737 279.733 359.071 271.349 371.638Z" fill="#7C1A00"/>
<path d="M231.957 -35.3036V241.952" stroke="url(#paint8_linear_726_1410)" stroke-width="1.06859" stroke-miterlimit="10"/>
<path d="M297.873 134.736C297.873 134.736 293.828 123.644 294.16 122.786C294.494 121.929 298.938 120.311 299.264 120.786C299.588 121.262 302.397 129.88 301.921 130.498C301.444 131.117 297.873 134.736 297.873 134.736Z" fill="#262166"/>
<path d="M230.555 120.19C230.555 120.19 233.024 121.214 234.122 123.881C235.22 126.547 234.792 116.93 234.792 116.93L233.602 115.835L230.555 120.19Z" fill="url(#paint9_linear_726_1410)"/>
<path d="M229.271 120.19C229.271 120.19 232.366 122.499 232.89 122.642C233.413 122.785 234.424 116.738 233.967 115.786C233.508 114.833 231.831 113.882 230.742 114.501C229.652 115.121 228.765 119.816 229.271 120.19Z" fill="url(#paint10_linear_726_1410)"/>
<path d="M237.506 120.881C237.506 120.881 235.041 115.168 233.964 114.169C232.887 113.169 230.888 114.455 230.744 114.977C230.6 115.5 233.136 115.882 233.964 116.739C234.792 117.597 232.554 123.928 234.697 126.167C236.838 128.404 237.506 120.881 237.506 120.881Z" fill="url(#paint11_linear_726_1410)"/>
<path d="M294.824 136.02C294.824 136.02 297.014 134.83 297.49 134.211C297.965 133.592 297.109 131.259 298.49 129.117C299.87 126.974 302.822 127.594 303.536 130.164C304.25 132.735 302.394 135.973 301.537 136.972C300.679 137.972 294.824 142.161 294.824 142.161" fill="url(#paint12_linear_726_1410)"/>
<path d="M296.396 140.987C296.332 141.367 295.941 142.018 295.184 142.906C292.405 146.154 284.749 152.512 270.948 159.779C270.676 160.89 270.463 162.023 270.302 163.155C269.79 166.772 269.799 170.427 269.971 173.712C270.013 174.557 270.066 175.38 270.126 176.17C270.378 179.632 270.719 182.491 270.629 184.147C270.586 184.873 270.458 185.365 270.213 185.583C269.903 185.855 269.576 186.102 269.234 186.321C262.342 190.746 249.796 184.137 247.766 182.148C247.606 181.994 247.509 181.865 247.489 181.774C247.136 180.439 248.504 179.011 249.268 176.724C249.395 176.335 249.524 175.463 249.652 174.272C250.016 170.751 250.331 164.452 250.444 159.713C250.508 156.688 250.491 154.301 250.353 153.67C250.347 153.659 250.347 153.648 250.347 153.648C249.968 152.093 238.411 134.633 234.944 128.446C234.308 127.318 233.946 126.565 233.966 126.351C234.093 124.957 236.759 120.005 237.331 120.069C237.428 120.079 237.781 120.523 238.314 121.26C240.992 124.979 248.194 136.22 249.519 137.652C250.759 138.993 257.068 145.635 259.772 148.482C260.536 149.278 261.011 149.78 261.011 149.78C262.475 149.753 263.943 149.62 265.413 149.391C278.401 147.387 291.165 138.294 294.505 135.766C295.055 135.35 295.35 135.114 295.35 135.114C295.35 135.114 296.684 139.209 296.396 140.987Z" fill="#F47920"/>
<path d="M263.981 155.525C259.55 156.241 259.538 150.476 259.768 148.483C260.531 149.279 261.007 149.781 261.007 149.781C262.471 149.755 263.939 149.621 265.409 149.392C265.96 151.663 265.518 155.279 263.981 155.525Z" fill="#C54527"/>
<path d="M268.469 143.168C267.609 143.686 266.486 143.863 265.054 143.493C263.954 143.215 262.665 142.612 261.164 141.591C261.164 141.591 259.977 143.018 259.882 145.635C256.739 142.921 255.976 140.206 258.642 139.207C257.547 134.447 259.882 133.447 263.782 133.213C267.688 132.972 268.591 136.973 270.924 136.878C271.066 139.012 270.462 141.987 268.469 143.168Z" fill="#262166"/>
<path d="M268.469 143.168C268.426 143.552 268.362 143.995 268.271 144.472C267.747 147.256 266.379 151.14 264.318 150.926C264.211 150.921 264.099 150.899 263.981 150.862C262.127 150.28 261.01 148.48 260.428 147.155C260.043 146.295 259.883 145.637 259.883 145.637C259.914 144.81 260.052 144.098 260.23 143.516C260.609 142.26 261.165 141.593 261.165 141.593C262.666 142.613 263.954 143.218 265.056 143.495C266.486 143.863 267.609 143.686 268.469 143.168Z" fill="url(#paint13_linear_726_1410)"/>
<path d="M264.313 152.566C264.291 153.576 264.152 154.366 263.479 154.414C262.116 154.51 260.306 152.731 260.402 150.797C260.434 150.141 260.445 149.441 260.445 148.799C260.445 148.152 260.433 147.565 260.423 147.154C261.005 148.479 262.122 150.279 263.976 150.861C264.094 150.898 264.206 150.92 264.313 150.925C264.307 151.487 264.329 152.053 264.313 152.566Z" fill="url(#paint14_linear_726_1410)"/>
<path d="M296.391 140.987C296.327 141.367 295.936 142.018 295.179 142.906C295.215 140.635 294.718 137.19 294.5 135.767C295.05 135.351 295.345 135.115 295.345 135.115C295.345 135.115 296.679 139.209 296.391 140.987Z" fill="#C54527"/>
<path d="M238.314 121.263C236.285 122.999 235.295 126.783 234.944 128.449C234.308 127.322 233.946 126.569 233.966 126.355C234.093 124.96 236.759 120.009 237.331 120.073C237.429 120.082 237.781 120.525 238.314 121.263Z" fill="#C54527"/>
<path d="M270.126 176.17C265.585 176.827 257.041 177.41 249.652 174.273C250.016 170.752 250.331 164.453 250.444 159.714C254.103 161.263 262.005 164.02 270.304 163.154C269.656 167.703 269.838 172.313 270.126 176.17Z" fill="#FCAF17"/>
<path opacity="0.25" d="M269.236 186.323C261.808 191.088 247.821 183.048 247.491 181.775C247.138 180.44 248.505 179.013 249.269 176.726C249.397 176.336 249.526 175.465 249.654 174.273C250.017 170.752 250.332 164.453 250.445 159.714C250.509 156.689 250.493 154.302 250.354 153.671C250.515 154.163 253.026 162.123 254.313 169.87C255.648 177.868 255.36 181.679 259.266 184.248C261.552 185.75 265.725 186.541 269.236 186.323Z" fill="#010101"/>
<path d="M286.205 208.308C286.205 211.61 274.269 229.904 271.797 233.659C271.514 234.092 271.353 234.333 271.353 234.333C271.353 234.333 269.814 234.156 268.548 233.729C267.667 233.423 266.914 233.007 266.914 232.431C266.914 232.312 266.936 232.131 266.973 231.89C267.395 229.342 270.018 220.12 273.385 207.928C271.611 205.77 259.168 197.515 259.168 197.515C259.168 197.515 259.162 197.526 259.156 197.547C258.617 198.791 241.344 238.734 239.383 242.459C239.313 242.592 239.264 242.677 239.233 242.715C238.346 243.859 234.664 243.982 234.409 241.572C234.409 241.567 234.409 241.567 234.409 241.561C233.351 231.465 242.059 201.009 246.115 187.54C246.841 185.126 247.418 183.256 247.765 182.149C249.795 184.137 262.341 190.746 269.233 186.323C269.575 186.103 269.902 185.858 270.212 185.585C270.457 185.366 270.585 184.875 270.628 184.148C270.756 184.286 270.891 184.436 271.023 184.597C275.83 190.094 286.205 205.128 286.205 208.308Z" fill="#9DC2E7"/>
<path d="M240.601 248.047C240.126 250.425 227.554 257.472 228.699 253.208C229.628 249.751 233.122 243.719 234.409 241.561C234.409 241.567 234.409 241.567 234.409 241.572C234.666 243.982 238.348 243.86 239.233 242.715C239.265 242.678 239.314 242.593 239.383 242.459C240.025 244.297 240.912 246.509 240.601 248.047Z" fill="#262166"/>
<path d="M275.927 245.952C274.971 246.429 262.596 241.667 262.88 240.048C263.168 238.43 266.972 231.89 266.972 231.89C266.935 232.131 266.912 232.312 266.912 232.431C266.912 233.824 271.352 234.333 271.352 234.333C271.352 234.333 271.512 234.092 271.796 233.659C272.348 238.602 276.82 245.505 275.927 245.952Z" fill="#262166"/>
<path opacity="0.25" d="M257.55 196.152C257.55 196.152 243.838 223.08 238.695 241.561" stroke="#010101" stroke-width="0.534236" stroke-miterlimit="10"/>
<path opacity="0.25" d="M260.789 196.152C260.789 196.152 276.024 206.15 276.596 207.769C277.167 209.387 268.693 231.891 268.693 231.891" stroke="#010101" stroke-width="0.534236" stroke-miterlimit="10"/>
<path opacity="0.25" d="M271.02 184.596C269.343 191.295 259.629 189.474 254.661 188.187C251.771 187.438 248.457 187.412 246.113 187.539C246.84 185.124 247.416 183.255 247.764 182.148C249.794 184.135 262.339 190.745 269.232 186.321C269.573 186.102 269.9 185.857 270.21 185.583C270.455 185.365 270.583 184.873 270.626 184.147C270.753 184.287 270.887 184.436 271.02 184.596Z" fill="#010101"/>
<path opacity="0.25" d="M268.551 233.73C267.671 233.424 266.918 233.008 266.918 232.432C266.918 232.313 266.94 232.132 266.977 231.891C267.399 229.343 270.022 220.121 273.388 207.929C271.615 205.771 259.172 197.516 259.172 197.516C259.172 197.516 260.186 194.092 261.33 193.836C262.472 193.585 275.675 204.944 277.134 207.295C278.42 209.36 269.429 226.222 268.551 233.73Z" fill="#010101"/>
<path opacity="0.25" d="M268.469 143.168C268.426 143.552 268.362 143.995 268.271 144.471C264.943 146.166 261.677 142.351 261.288 142.398C261.064 142.425 260.604 143.003 260.23 143.515C260.609 142.259 261.165 141.592 261.165 141.592C262.666 142.612 263.954 143.216 265.056 143.494C266.486 143.862 267.609 143.686 268.469 143.168Z" fill="#010101"/>
<path opacity="0.25" d="M264.315 152.566C262.119 152.031 260.906 149.83 260.448 148.799C260.448 148.152 260.436 147.565 260.426 147.154C261.008 148.479 262.125 150.279 263.978 150.861C264.097 150.898 264.209 150.92 264.315 150.925C264.31 151.487 264.332 152.053 264.315 152.566Z" fill="#010101"/>
<path opacity="0.25" d="M270.301 163.155C269.788 166.772 269.798 170.427 269.97 173.712C269.104 170.063 268.346 166.141 269.232 163.871C270.759 159.961 270.925 159.779 270.947 159.779C270.674 160.89 270.46 162.022 270.301 163.155Z" fill="#010101"/>
<path d="M163.405 199.588L122.297 192.525L122.233 192.893L31.4527 295.101L29.5781 320.651L42.5988 322.889L65.135 326.763L95.3855 331.962L98.2607 332.454L96.0968 345.057L95.0927 350.888L91.7852 370.148L118.541 374.748L132.894 377.211L139.368 339.517L157.426 342.615L162.876 310.895L144.817 307.797L163.405 199.588ZM112.088 251.964L103.704 300.733L93.676 299.007L71.7429 295.242L83.8873 280.747L86.666 277.429L109.822 249.791L113.097 246.083L112.088 251.964Z" fill="#EFD9B8"/>
<path opacity="0.25" d="M95.3834 331.962L65.1328 326.763C68.6959 314.992 73.1423 298.771 71.7419 295.241L93.675 299.006C95.08 301.348 96.191 304.568 96.4909 308.988C97.0243 316.81 95.8587 324.797 95.3834 331.962Z" fill="#C29F6A"/>
<path opacity="0.25" d="M144.815 307.797L162.874 310.895L157.424 342.615L139.366 339.517L132.89 377.211L118.539 374.746L143.763 217.359L163.402 199.588L144.815 307.797Z" fill="#C29F6A"/>
<path d="M132.531 -35.3036V210.008" stroke="url(#paint15_linear_726_1410)" stroke-width="1.06859" stroke-miterlimit="10"/>
<defs>
<linearGradient id="paint0_linear_726_1410" x1="26.2715" y1="237.28" x2="27.3189" y2="227.377" gradientUnits="userSpaceOnUse">
<stop stop-color="#FBC4AF"/>
<stop offset="1" stop-color="#EA8B69"/>
</linearGradient>
<linearGradient id="paint1_linear_726_1410" x1="39.4732" y1="233.968" x2="30.3318" y2="234.634" gradientUnits="userSpaceOnUse">
<stop stop-color="#FBC4AF"/>
<stop offset="1" stop-color="#EA8B69"/>
</linearGradient>
<linearGradient id="paint2_linear_726_1410" x1="27.508" y1="271.279" x2="35.8873" y2="241.189" gradientUnits="userSpaceOnUse">
<stop stop-color="#FBC4AF"/>
<stop offset="1" stop-color="#EA8B69"/>
</linearGradient>
<linearGradient id="paint3_linear_726_1410" x1="361.828" y1="160.959" x2="362.209" y2="152.248" gradientUnits="userSpaceOnUse">
<stop stop-color="#FBC4AF"/>
<stop offset="1" stop-color="#EA8B69"/>
</linearGradient>
<linearGradient id="paint4_linear_726_1410" x1="363.519" y1="164.665" x2="363.234" y2="158.476" gradientUnits="userSpaceOnUse">
<stop stop-color="#FBC4AF"/>
<stop offset="1" stop-color="#EA8B69"/>
</linearGradient>
<linearGradient id="paint5_linear_726_1410" x1="344.417" y1="211.384" x2="351.272" y2="166.822" gradientUnits="userSpaceOnUse">
<stop stop-color="#FBC4AF"/>
<stop offset="1" stop-color="#EA8B69"/>
</linearGradient>
<linearGradient id="paint6_linear_726_1410" x1="381.164" y1="201.843" x2="381.164" y2="-35.3036" gradientUnits="userSpaceOnUse">
<stop stop-color="#EBDAC9"/>
<stop offset="1" stop-color="white"/>
</linearGradient>
<linearGradient id="paint7_linear_726_1410" x1="382.77" y1="157.635" x2="388.102" y2="185.755" gradientUnits="userSpaceOnUse">
<stop stop-color="#FBC4AF"/>
<stop offset="1" stop-color="#EA8B69"/>
</linearGradient>
<linearGradient id="paint8_linear_726_1410" x1="232.457" y1="241.952" x2="232.457" y2="-35.3036" gradientUnits="userSpaceOnUse">
<stop stop-color="#EBDAC9"/>
<stop offset="1" stop-color="white"/>
</linearGradient>
<linearGradient id="paint9_linear_726_1410" x1="231.541" y1="116.153" x2="234.875" y2="123.237" gradientUnits="userSpaceOnUse">
<stop stop-color="#FBC4AF"/>
<stop offset="1" stop-color="#EA8B69"/>
</linearGradient>
<linearGradient id="paint10_linear_726_1410" x1="226.488" y1="115.978" x2="234.772" y2="119.453" gradientUnits="userSpaceOnUse">
<stop stop-color="#FBC4AF"/>
<stop offset="1" stop-color="#EA8B69"/>
</linearGradient>
<linearGradient id="paint11_linear_726_1410" x1="231.24" y1="113.311" x2="236.572" y2="124.642" gradientUnits="userSpaceOnUse">
<stop stop-color="#FBC4AF"/>
<stop offset="1" stop-color="#EA8B69"/>
</linearGradient>
<linearGradient id="paint12_linear_726_1410" x1="307.164" y1="124.525" x2="292.025" y2="142.52" gradientUnits="userSpaceOnUse">
<stop stop-color="#FBC4AF"/>
<stop offset="1" stop-color="#EA8B69"/>
</linearGradient>
<linearGradient id="paint13_linear_726_1410" x1="264.825" y1="151.956" x2="263.206" y2="133.101" gradientUnits="userSpaceOnUse">
<stop stop-color="#FBC4AF"/>
<stop offset="1" stop-color="#EA8B69"/>
</linearGradient>
<linearGradient id="paint14_linear_726_1410" x1="262.052" y1="152.102" x2="262.813" y2="147.246" gradientUnits="userSpaceOnUse">
<stop stop-color="#FBC4AF"/>
<stop offset="1" stop-color="#EA8B69"/>
</linearGradient>
<linearGradient id="paint15_linear_726_1410" x1="133.031" y1="210.008" x2="133.031" y2="-35.3036" gradientUnits="userSpaceOnUse">
<stop stop-color="#EBDAC9"/>
<stop offset="1" stop-color="white"/>
</linearGradient>
</defs>
</svg>
