<svg width="64" height="64" viewBox="0 0 64 64" fill="none" xmlns="http://www.w3.org/2000/svg">
<circle cx="32" cy="32" r="32" fill="#F9F4EE"/>
<circle cx="32" cy="32" r="31.5" stroke="#E9E2D8" stroke-opacity="0.5"/>
<g clip-path="url(#clip0_808_737)">
<path d="M35.5339 26.9413C34.6129 26.9413 33.8635 26.192 33.8635 25.2709V19.7822H25.3203C23.8729 19.7822 22.6953 20.9598 22.6953 22.4072V41.5936C22.6953 43.041 23.8729 44.2186 25.3203 44.2186H38.6839C40.1314 44.2186 41.3089 43.041 41.3089 41.5936V26.9413H35.5339ZM26.6089 36.964H30.0797C30.475 36.964 30.7956 37.2846 30.7956 37.68C30.7956 38.0753 30.475 38.3959 30.0797 38.3959H26.6089C26.2136 38.3959 25.893 38.0753 25.893 37.68C25.893 37.2846 26.2136 36.964 26.6089 36.964ZM25.893 33.8618C25.893 33.4664 26.2136 33.1459 26.6089 33.1459H37.1089C37.5043 33.1459 37.8249 33.4664 37.8249 33.8618C37.8249 34.2571 37.5043 34.5777 37.1089 34.5777H26.6089C26.2136 34.5777 25.893 34.2571 25.893 33.8618ZM37.1089 29.3277C37.5043 29.3277 37.8249 29.6482 37.8249 30.0436C37.8249 30.439 37.5043 30.7595 37.1089 30.7595H26.6089C26.2136 30.7595 25.893 30.439 25.893 30.0436C25.893 29.6482 26.2136 29.3277 26.6089 29.3277H37.1089Z" fill="#B02E0C"/>
<path d="M35.293 25.2708C35.293 25.4024 35.4 25.5095 35.5316 25.5095H40.9875C40.8559 25.2658 40.6865 25.0446 40.4856 24.8541L35.8836 20.5003C35.7072 20.3333 35.5084 20.1916 35.293 20.0791V25.2708H35.293Z" fill="#B02E0C"/>
</g>
<defs>
<clipPath id="clip0_808_737">
<rect width="24.4364" height="24.4364" fill="white" transform="translate(19.7812 19.7822)"/>
</clipPath>
</defs>
</svg>
