<svg width="21" height="21" viewBox="0 0 21 21" fill="none" xmlns="http://www.w3.org/2000/svg">
<path d="M17.5853 12.8285C17.4811 12.7766 17.3664 12.7495 17.25 12.7495C17.1336 12.7495 17.0189 12.7766 16.9147 12.8285C16.9147 12.8285 13.8682 14.3615 13.8442 14.3773L17.25 16.0798L20.6558 14.3773C20.6318 14.3623 17.5853 12.8285 17.5853 12.8285ZM13.5 18.7498C13.4999 18.8891 13.5387 19.0258 13.612 19.1443C13.6852 19.2629 13.7901 19.3587 13.9147 19.421L16.875 20.9998V16.7323L13.5 15.0448V18.7498ZM17.625 16.7323V20.9998L20.5853 19.421C20.7099 19.3587 20.8148 19.2629 20.888 19.1443C20.9613 19.0258 21.0001 18.8891 21 18.7498V15.0448L17.625 16.7323ZM8.58525 12.8285C8.48113 12.7766 8.36636 12.7495 8.25 12.7495C8.13364 12.7495 8.01887 12.7766 7.91475 12.8285C7.91475 12.8285 4.8675 14.3623 4.84425 14.3773L8.25 16.0798L11.6558 14.3773C11.6318 14.3623 8.58525 12.8285 8.58525 12.8285ZM4.5 18.7498C4.49994 18.8891 4.53871 19.0258 4.61197 19.1443C4.68523 19.2629 4.79008 19.3587 4.91475 19.421L7.875 20.9998V16.7323L4.5 15.0448V18.7498ZM8.625 20.9998L11.5853 19.421C11.7099 19.3587 11.8148 19.2629 11.888 19.1443C11.9613 19.0258 12.0001 18.8891 12 18.7498V15.0448L8.625 16.7323V20.9998ZM13.0853 5.32852C12.9811 5.27656 12.8664 5.24951 12.75 5.24951C12.6336 5.24951 12.5189 5.27656 12.4147 5.32852C12.4147 5.32852 9.36825 6.86152 9.34425 6.87727L12.75 8.57977L16.1558 6.87727C16.1318 6.86227 13.0853 5.32852 13.0853 5.32852ZM9 11.2498C8.99994 11.3891 9.03871 11.5258 9.11197 11.6443C9.18523 11.7629 9.29008 11.8587 9.41475 11.921L12.375 13.4998V9.23227L9 7.54477V11.2498Z" fill="#B02E0C"/>
<path d="M3.75 18.75V14.1952C3.75 14.1952 4.49325 13.7107 7.57725 12.159C7.7865 12.054 7.992 12 8.25 12V6.69525C8.25 6.69525 8.99325 6.21075 12.078 4.659C12.2865 4.555 12.5162 4.5008 12.7492 4.50067C12.9821 4.50054 13.2119 4.55448 13.4205 4.65825L14.25 5.07525V0.75C14.25 0.551088 14.171 0.360322 14.0303 0.21967C13.8897 0.0790176 13.6989 0 13.5 0H10.8127L10.1137 2.796C10.0934 2.87702 10.0465 2.94892 9.98061 3.00028C9.91471 3.05164 9.83355 3.07952 9.75 3.0795H4.5C4.41645 3.07952 4.33529 3.05164 4.26939 3.00028C4.2035 2.94892 4.15664 2.87702 4.13625 2.796L3.43725 0H0.75C0.551088 0 0.360322 0.0790176 0.21967 0.21967C0.0790176 0.360322 0 0.551088 0 0.75V20.25C0 20.4489 0.0790176 20.6397 0.21967 20.7803C0.360322 20.921 0.551088 21 0.75 21H6.28125L4.5615 20.0828C4.3159 19.9578 4.10991 19.7669 3.9666 19.5315C3.82328 19.2962 3.74828 19.0256 3.75 18.75ZM3 5.25C3.82725 5.25 4.5 5.92275 4.5 6.75C4.5 7.57725 3.82725 8.25 3 8.25C2.17275 8.25 1.5 7.57725 1.5 6.75C1.5 5.92275 2.17275 5.25 3 5.25ZM1.5 11.25C1.5 10.4227 2.17275 9.75 3 9.75C3.82725 9.75 4.5 10.4227 4.5 11.25C4.5 12.0773 3.82725 12.75 3 12.75C2.17275 12.75 1.5 12.0773 1.5 11.25ZM16.5 11.25V7.545L13.125 9.2325V13.5L16.0853 11.9213C16.2099 11.859 16.3148 11.7631 16.388 11.6446C16.4613 11.526 16.5001 11.3894 16.5 11.25Z" fill="#B02E0C"/>
<path d="M9.45794 2.3295L10.0392 0H4.21094L4.79369 2.3295H9.45794Z" fill="#B02E0C"/>
</svg>
