<svg width="24" height="24" viewBox="0 0 24 24" fill="none" xmlns="http://www.w3.org/2000/svg">
<path d="M23.2966 22.5935H22.5466V8.71874C22.5466 8.33043 22.2318 8.01562 21.8435 8.01562H19.031C18.6427 8.01562 18.3279 8.33043 18.3279 8.71874V22.5935H16.9216V13.4062C16.9216 13.0179 16.6068 12.7031 16.2185 12.7031H13.4061C13.0178 12.7031 12.703 13.0179 12.703 13.4062V22.5935H11.2967V15.9843C11.2967 15.596 10.9819 15.2812 10.5936 15.2812H7.78114C7.39284 15.2812 7.07803 15.596 7.07803 15.9843V22.5935H5.6718V17.6717C5.6718 17.2834 5.35699 16.9686 4.96868 16.9686H2.15622C1.76791 16.9686 1.45311 17.2834 1.45311 17.6717V22.5935H0.703115C0.314808 22.5935 0 22.9084 0 23.2967C0 23.685 0.314808 23.9998 0.703115 23.9998H23.2966C23.6849 23.9998 23.9997 23.685 23.9997 23.2967C23.9997 22.9084 23.6849 22.5935 23.2966 22.5935Z" fill="#B02E0C"/>
<path d="M0.703115 15.1079C5.0914 15.1079 9.85018 13.5319 14.1029 10.6702C17.4336 8.42891 20.21 5.56568 21.9346 2.63383L22.6174 5.18225C22.7016 5.4964 23.1081 5.7678 23.4786 5.6794C23.8563 5.5893 24.0762 5.19336 23.9757 4.81827L22.8243 0.521295C22.7238 0.146253 22.3384 -0.0764 21.9632 0.0241455L17.6662 1.17552C17.2912 1.27602 17.0686 1.66156 17.1691 2.03665C17.2696 2.41174 17.655 2.63439 18.0302 2.5338L20.7984 1.79206C19.1894 4.58793 16.5303 7.3417 13.3178 9.5035C9.29467 12.2108 4.8147 13.7017 0.703115 13.7017C0.314808 13.7017 0 14.0165 0 14.4048C0 14.7931 0.314808 15.1079 0.703115 15.1079Z" fill="#B02E0C"/>
</svg>
