<svg width="64" height="64" viewBox="0 0 64 64" fill="none" xmlns="http://www.w3.org/2000/svg">
<circle cx="32" cy="32" r="32" fill="#F9F4EE"/>
<circle cx="32" cy="32" r="31.5" stroke="#E9E2D8" stroke-opacity="0.5"/>
<g clip-path="url(#clip0_808_748)">
<path d="M30.7598 19.7822C30.4813 19.7822 30.2174 19.9093 30.0414 20.1243C29.8704 20.3443 29.8019 20.6277 29.8655 20.9014L30.4031 23.3255C30.4666 23.5894 30.7256 23.7507 30.9895 23.6969H32.6317C32.6659 23.7018 32.705 23.7067 32.7392 23.7067C32.964 23.7067 33.1644 23.5503 33.2133 23.3255L33.7557 20.9014C33.8193 20.6277 33.7509 20.3443 33.5798 20.1243C33.4039 19.9093 33.14 19.7822 32.8614 19.7822H30.7598ZM41.5118 43.7299V39.8787C41.5118 39.0185 41.3164 38.1926 40.9596 37.4448C40.5979 36.6971 40.0701 36.0275 39.4005 35.4899C38.6675 34.9034 37.7291 34.6591 36.8054 34.7568C36.9813 35.0012 37.0889 35.2944 37.0889 35.617V38.7937C37.9881 39.2189 38.5941 40.1328 38.5941 41.1787V43.7299C38.5941 43.9009 38.5599 44.0671 38.5062 44.2186H41.0231C41.2919 44.2186 41.5118 43.9987 41.5118 43.7299ZM29.4647 38.5298H34.1565V35.9005C33.422 36.2433 32.6212 36.4209 31.8106 36.4209C31 36.4209 30.1993 36.2433 29.4647 35.9005V38.5298ZM22.1094 39.8787V43.7299C22.1094 43.9987 22.3293 44.2186 22.5981 44.2186H25.115C25.0613 44.0671 25.0271 43.9009 25.0271 43.7299V41.1787C25.0271 40.1279 25.6331 39.2189 26.5324 38.7937V35.617C26.5324 35.2944 26.6399 34.9963 26.8158 34.7568C25.8921 34.664 24.9538 34.9034 24.2207 35.4899C22.8816 36.5651 22.1094 38.1633 22.1094 39.8787Z" fill="#B02E0C"/>
<path d="M26.0039 41.1784V43.7295C26.0039 43.9983 26.2238 44.2183 26.4926 44.2183H37.1273C37.3961 44.2183 37.6161 43.9983 37.6161 43.7295V41.1784C37.6161 40.3133 36.9514 39.6047 36.1108 39.5216V35.6167C36.1108 35.3479 35.8909 35.1279 35.6221 35.1279C35.3484 35.1279 35.1333 35.3479 35.1333 35.6167V39.5069H28.4866V35.6167C28.4866 35.3479 28.2716 35.1279 27.9979 35.1279C27.7291 35.1279 27.5092 35.3479 27.5092 35.6167V39.5216C27.0977 39.5624 26.7159 39.7544 26.4379 40.0604C26.1598 40.3665 26.0052 40.7649 26.0039 41.1784Z" fill="#B02E0C"/>
<path d="M37.0637 29.8495H26.5561C27.0839 32.9236 29.2392 35.2304 31.8099 35.2304C34.3806 35.2304 36.5359 32.9236 37.0637 29.8495ZM25.0508 26.5995V28.3833C25.0508 28.6521 25.2707 28.8721 25.5395 28.8721H38.0803C38.3491 28.8721 38.569 28.6521 38.569 28.3833V26.5995C38.569 26.3307 38.3491 26.1108 38.0803 26.1108H37.7333C37.572 24.0923 36.3941 22.3231 34.6543 21.375L34.1704 23.5352C34.0994 23.8616 33.9184 24.1538 33.6577 24.3629C33.3971 24.5719 33.0726 24.6852 32.7385 24.6837C32.6749 24.6837 32.6163 24.6788 32.5527 24.6739H31.067C31.0035 24.6788 30.9448 24.6837 30.8813 24.6837C30.202 24.6837 29.6008 24.1998 29.4493 23.5401L28.9704 21.3799C28.1038 21.8497 27.3684 22.5285 26.8307 23.3547C26.293 24.1809 25.9701 25.1282 25.8914 26.1108H25.5395C25.2707 26.1108 25.0508 26.3307 25.0508 26.5995Z" fill="#B02E0C"/>
</g>
<defs>
<clipPath id="clip0_808_748">
<rect width="24.4364" height="24.4364" fill="white" transform="translate(19.7812 19.7822)"/>
</clipPath>
</defs>
</svg>
